<svg xmlns="http://www.w3.org/2000/svg" width="9" height="12" viewBox="0 0 9 12">
    <defs>
        <filter id="kl7jkq644a" width="110.7%" height="113.2%" x="-5.3%" y="-6.6%" filterUnits="objectBoundingBox">
            <feOffset in="SourceAlpha" result="shadowOffsetOuter1"/>
            <feGaussianBlur in="shadowOffsetOuter1" result="shadowBlurOuter1" stdDeviation="5"/>
            <feColorMatrix in="shadowBlurOuter1" result="shadowMatrixOuter1" values="0 0 0 0 0 0 0 0 0 0 0 0 0 0 0 0 0 0 0.1 0"/>
            <feMerge>
                <feMergeNode in="shadowMatrixOuter1"/>
                <feMergeNode in="SourceGraphic"/>
            </feMerge>
        </filter>
    </defs>
    <g fill="none" fill-rule="evenodd">
        <g>
            <g filter="url(#kl7jkq644a)" transform="translate(-178 -517) translate(1 365)">
                <g>
                    <g>
                        <path fill="#000" d="M4.825 10.205c-.93 0-2.25-.525-3.06-1.14l-.75 1.215c.9.72 2.235 1.275 3.765 1.275 2.22 0 3.855-1.02 3.855-3v-.27c0-1.5-.825-2.445-3.495-3.045-1.605-.36-2.49-.72-2.49-1.71v-.24c0-.855.885-1.545 2.235-1.545.99 0 1.785.225 2.58.765l.705-1.155C7.255.74 6.19.41 4.87.41c-2.49 0-3.705 1.425-3.705 2.895v.27c0 1.95 1.56 2.58 3.6 3.015 1.755.375 2.37.855 2.37 1.8v.24c0 .855-.78 1.575-2.31 1.575z" transform="translate(24 142) translate(153 10)"/>
                        <path stroke="#000" stroke-linecap="square" d="M1 6L8.4 6" transform="translate(24 142) translate(153 10)"/>
                    </g>
                </g>
            </g>
        </g>
    </g>
</svg>
